<svg width="390" height="68" viewBox="0 0 390 68" fill="none" xmlns="http://www.w3.org/2000/svg">
<rect width="390" height="68.2995" fill="white"/>
<g filter="url(#filter0_i_149_13716)">
<rect width="97.5" height="68" transform="translate(97.5)" fill="white"/>
<path d="M119.094 41.26H123.294C123.754 41.26 124.184 41.335 124.584 41.485C124.984 41.625 125.329 41.825 125.619 42.085C125.919 42.335 126.154 42.63 126.324 42.97C126.494 43.31 126.579 43.675 126.579 44.065C126.579 44.635 126.439 45.115 126.159 45.505C125.889 45.885 125.549 46.175 125.139 46.375V46.495C125.689 46.695 126.129 47.01 126.459 47.44C126.799 47.86 126.969 48.385 126.969 49.015C126.969 49.475 126.874 49.89 126.684 50.26C126.504 50.62 126.254 50.93 125.934 51.19C125.614 51.45 125.239 51.65 124.809 51.79C124.389 51.93 123.934 52 123.444 52H119.094V41.26ZM123.144 45.64C123.614 45.64 123.974 45.515 124.224 45.265C124.484 45.005 124.614 44.7 124.614 44.35C124.614 44 124.489 43.7 124.239 43.45C123.989 43.2 123.644 43.075 123.204 43.075H121.119V45.64H123.144ZM123.369 50.14C123.879 50.14 124.269 50.015 124.539 49.765C124.809 49.505 124.944 49.175 124.944 48.775C124.944 48.375 124.804 48.045 124.524 47.785C124.254 47.515 123.849 47.38 123.309 47.38H121.119V50.14H123.369ZM131.768 44.41C132.338 44.41 132.858 44.51 133.328 44.71C133.808 44.9 134.218 45.17 134.558 45.52C134.908 45.86 135.178 46.27 135.368 46.75C135.568 47.23 135.668 47.755 135.668 48.325C135.668 48.895 135.568 49.42 135.368 49.9C135.178 50.38 134.908 50.795 134.558 51.145C134.218 51.485 133.808 51.755 133.328 51.955C132.858 52.145 132.338 52.24 131.768 52.24C131.198 52.24 130.673 52.145 130.193 51.955C129.723 51.755 129.313 51.485 128.963 51.145C128.623 50.795 128.353 50.38 128.153 49.9C127.963 49.42 127.868 48.895 127.868 48.325C127.868 47.755 127.963 47.23 128.153 46.75C128.353 46.27 128.623 45.86 128.963 45.52C129.313 45.17 129.723 44.9 130.193 44.71C130.673 44.51 131.198 44.41 131.768 44.41ZM131.768 50.425C132.018 50.425 132.258 50.38 132.488 50.29C132.728 50.19 132.938 50.05 133.118 49.87C133.298 49.69 133.438 49.47 133.538 49.21C133.648 48.95 133.703 48.655 133.703 48.325C133.703 47.995 133.648 47.7 133.538 47.44C133.438 47.18 133.298 46.96 133.118 46.78C132.938 46.6 132.728 46.465 132.488 46.375C132.258 46.275 132.018 46.225 131.768 46.225C131.508 46.225 131.263 46.275 131.033 46.375C130.803 46.465 130.598 46.6 130.418 46.78C130.238 46.96 130.093 47.18 129.983 47.44C129.883 47.7 129.833 47.995 129.833 48.325C129.833 48.655 129.883 48.95 129.983 49.21C130.093 49.47 130.238 49.69 130.418 49.87C130.598 50.05 130.803 50.19 131.033 50.29C131.263 50.38 131.508 50.425 131.768 50.425ZM140.41 44.41C140.98 44.41 141.5 44.51 141.97 44.71C142.45 44.9 142.86 45.17 143.2 45.52C143.55 45.86 143.82 46.27 144.01 46.75C144.21 47.23 144.31 47.755 144.31 48.325C144.31 48.895 144.21 49.42 144.01 49.9C143.82 50.38 143.55 50.795 143.2 51.145C142.86 51.485 142.45 51.755 141.97 51.955C141.5 52.145 140.98 52.24 140.41 52.24C139.84 52.24 139.315 52.145 138.835 51.955C138.365 51.755 137.955 51.485 137.605 51.145C137.265 50.795 136.995 50.38 136.795 49.9C136.605 49.42 136.51 48.895 136.51 48.325C136.51 47.755 136.605 47.23 136.795 46.75C136.995 46.27 137.265 45.86 137.605 45.52C137.955 45.17 138.365 44.9 138.835 44.71C139.315 44.51 139.84 44.41 140.41 44.41ZM140.41 50.425C140.66 50.425 140.9 50.38 141.13 50.29C141.37 50.19 141.58 50.05 141.76 49.87C141.94 49.69 142.08 49.47 142.18 49.21C142.29 48.95 142.345 48.655 142.345 48.325C142.345 47.995 142.29 47.7 142.18 47.44C142.08 47.18 141.94 46.96 141.76 46.78C141.58 46.6 141.37 46.465 141.13 46.375C140.9 46.275 140.66 46.225 140.41 46.225C140.15 46.225 139.905 46.275 139.675 46.375C139.445 46.465 139.24 46.6 139.06 46.78C138.88 46.96 138.735 47.18 138.625 47.44C138.525 47.7 138.475 47.995 138.475 48.325C138.475 48.655 138.525 48.95 138.625 49.21C138.735 49.47 138.88 49.69 139.06 49.87C139.24 50.05 139.445 50.19 139.675 50.29C139.905 50.38 140.15 50.425 140.41 50.425ZM145.5 41.26H147.465V47.11H147.555L150.015 44.65H152.445V44.77L149.715 47.425L152.67 51.88V52H150.345L148.335 48.775L147.465 49.63V52H145.5V41.26ZM154.549 43.585C154.379 43.585 154.214 43.555 154.054 43.495C153.904 43.425 153.769 43.335 153.649 43.225C153.539 43.105 153.449 42.97 153.379 42.82C153.319 42.67 153.289 42.505 153.289 42.325C153.289 42.145 153.319 41.98 153.379 41.83C153.449 41.68 153.539 41.55 153.649 41.44C153.769 41.32 153.904 41.23 154.054 41.17C154.214 41.1 154.379 41.065 154.549 41.065C154.899 41.065 155.199 41.19 155.449 41.44C155.699 41.68 155.824 41.975 155.824 42.325C155.824 42.675 155.699 42.975 155.449 43.225C155.199 43.465 154.899 43.585 154.549 43.585ZM153.574 52V44.65H155.539V52H153.574ZM159.181 45.61H159.301C159.531 45.24 159.841 44.95 160.231 44.74C160.621 44.52 161.066 44.41 161.566 44.41C162.026 44.41 162.431 44.485 162.781 44.635C163.131 44.785 163.416 45 163.636 45.28C163.866 45.55 164.036 45.88 164.146 46.27C164.266 46.65 164.326 47.075 164.326 47.545V52H162.361V47.785C162.361 47.255 162.241 46.865 162.001 46.615C161.771 46.355 161.431 46.225 160.981 46.225C160.711 46.225 160.471 46.285 160.261 46.405C160.061 46.515 159.886 46.67 159.736 46.87C159.596 47.06 159.486 47.29 159.406 47.56C159.336 47.82 159.301 48.1 159.301 48.4V52H157.336V44.65H159.181V45.61ZM169.266 55.48C168.746 55.48 168.281 55.41 167.871 55.27C167.471 55.14 167.121 54.965 166.821 54.745C166.521 54.535 166.271 54.3 166.071 54.04C165.871 53.78 165.726 53.52 165.636 53.26L167.511 52.51C167.651 52.9 167.881 53.2 168.201 53.41C168.521 53.63 168.876 53.74 169.266 53.74C169.886 53.74 170.376 53.545 170.736 53.155C171.096 52.775 171.276 52.24 171.276 51.55V51.04H171.156C170.926 51.36 170.621 51.615 170.241 51.805C169.871 51.985 169.431 52.075 168.921 52.075C168.481 52.075 168.051 51.985 167.631 51.805C167.221 51.625 166.856 51.37 166.536 51.04C166.216 50.7 165.956 50.295 165.756 49.825C165.556 49.355 165.456 48.83 165.456 48.25C165.456 47.67 165.556 47.145 165.756 46.675C165.956 46.195 166.216 45.79 166.536 45.46C166.856 45.12 167.221 44.86 167.631 44.68C168.051 44.5 168.481 44.41 168.921 44.41C169.431 44.41 169.871 44.505 170.241 44.695C170.621 44.875 170.926 45.125 171.156 45.445H171.276V44.65H173.151V51.475C173.151 52.095 173.056 52.65 172.866 53.14C172.676 53.64 172.411 54.06 172.071 54.4C171.731 54.75 171.321 55.015 170.841 55.195C170.371 55.385 169.846 55.48 169.266 55.48ZM169.341 50.305C169.581 50.305 169.816 50.26 170.046 50.17C170.286 50.08 170.496 49.95 170.676 49.78C170.856 49.6 171.001 49.385 171.111 49.135C171.221 48.875 171.276 48.58 171.276 48.25C171.276 47.92 171.221 47.625 171.111 47.365C171.001 47.105 170.856 46.89 170.676 46.72C170.496 46.54 170.286 46.405 170.046 46.315C169.816 46.225 169.581 46.18 169.341 46.18C169.101 46.18 168.866 46.225 168.636 46.315C168.406 46.405 168.201 46.54 168.021 46.72C167.841 46.9 167.696 47.12 167.586 47.38C167.476 47.63 167.421 47.92 167.421 48.25C167.421 48.58 167.476 48.875 167.586 49.135C167.696 49.385 167.841 49.6 168.021 49.78C168.201 49.95 168.406 50.08 168.636 50.17C168.866 50.26 169.101 50.305 169.341 50.305Z" fill="#2463BF"/>
</g>
<g filter="url(#filter1_i_149_13716)">
<rect width="97.5" height="68" fill="white"/>
<path d="M39 23L48 16L57 23V34C57 34.5304 56.7893 35.0391 56.4142 35.4142C56.0391 35.7893 55.5304 36 55 36H41C40.4696 36 39.9609 35.7893 39.5858 35.4142C39.2107 35.0391 39 34.5304 39 34V23Z" stroke="black" stroke-width="2" stroke-linecap="round" stroke-linejoin="round"/>
<path d="M45 36V26H51V36" stroke="black" stroke-width="2" stroke-linecap="round" stroke-linejoin="round"/>
<path d="M30.7871 52H29.4071V41.26H30.7871V45.865H36.1571V41.26H37.5371V52H36.1571V47.155H30.7871V52ZM39.0304 48.325C39.0304 47.195 39.3854 46.26 40.0954 45.52C40.8154 44.78 41.7204 44.41 42.8104 44.41C43.9004 44.41 44.8004 44.78 45.5104 45.52C46.2304 46.26 46.5904 47.195 46.5904 48.325C46.5904 49.465 46.2304 50.4 45.5104 51.13C44.8004 51.87 43.9004 52.24 42.8104 52.24C41.7204 52.24 40.8154 51.87 40.0954 51.13C39.3854 50.39 39.0304 49.455 39.0304 48.325ZM40.4104 48.325C40.4104 49.115 40.6404 49.755 41.1004 50.245C41.5604 50.735 42.1304 50.98 42.8104 50.98C43.4904 50.98 44.0604 50.735 44.5204 50.245C44.9804 49.755 45.2104 49.115 45.2104 48.325C45.2104 47.545 44.9804 46.91 44.5204 46.42C44.0504 45.92 43.4804 45.67 42.8104 45.67C42.1404 45.67 41.5704 45.92 41.1004 46.42C40.6404 46.91 40.4104 47.545 40.4104 48.325ZM49.0774 52H47.6974V44.65H49.0174V45.67H49.0774C49.2874 45.31 49.6074 45.01 50.0374 44.77C50.4774 44.53 50.9124 44.41 51.3424 44.41C51.8824 44.41 52.3574 44.535 52.7674 44.785C53.1774 45.035 53.4774 45.38 53.6674 45.82C54.2774 44.88 55.1224 44.41 56.2024 44.41C57.0524 44.41 57.7074 44.67 58.1674 45.19C58.6274 45.71 58.8574 46.45 58.8574 47.41V52H57.4774V47.62C57.4774 46.93 57.3524 46.435 57.1024 46.135C56.8524 45.825 56.4324 45.67 55.8424 45.67C55.3124 45.67 54.8674 45.895 54.5074 46.345C54.1474 46.795 53.9674 47.325 53.9674 47.935V52H52.5874V47.62C52.5874 46.93 52.4624 46.435 52.2124 46.135C51.9624 45.825 51.5424 45.67 50.9524 45.67C50.4224 45.67 49.9774 45.895 49.6174 46.345C49.2574 46.795 49.0774 47.325 49.0774 47.935V52ZM63.7709 52.24C62.6909 52.24 61.8009 51.87 61.1009 51.13C60.4009 50.39 60.0509 49.455 60.0509 48.325C60.0509 47.205 60.3909 46.275 61.0709 45.535C61.7509 44.785 62.6209 44.41 63.6809 44.41C64.7709 44.41 65.6359 44.765 66.2759 45.475C66.9259 46.175 67.2509 47.16 67.2509 48.43L67.2359 48.58H61.4609C61.4809 49.3 61.7209 49.88 62.1809 50.32C62.6409 50.76 63.1909 50.98 63.8309 50.98C64.7109 50.98 65.4009 50.54 65.9009 49.66L67.1309 50.26C66.8009 50.88 66.3409 51.365 65.7509 51.715C65.1709 52.065 64.5109 52.24 63.7709 52.24ZM61.5659 47.44H65.7809C65.7409 46.93 65.5309 46.51 65.1509 46.18C64.7809 45.84 64.2809 45.67 63.6509 45.67C63.1309 45.67 62.6809 45.83 62.3009 46.15C61.9309 46.47 61.6859 46.9 61.5659 47.44Z" fill="black"/>
</g>
<g filter="url(#filter2_i_149_13716)">
<rect width="97.424" height="68" transform="translate(195)" fill="white"/>
<path d="M244.73 35C244.554 35.3031 244.302 35.5547 243.998 35.7295C243.695 35.9044 243.35 35.9965 243 35.9965C242.65 35.9965 242.305 35.9044 242.002 35.7295C241.698 35.5547 241.446 35.3031 241.27 35M253 31H233C233.796 31 234.559 30.6839 235.121 30.1213C235.684 29.5587 236 28.7956 236 28V23C236 21.1435 236.737 19.363 238.05 18.0503C239.363 16.7375 241.143 16 243 16C244.857 16 246.637 16.7375 247.95 18.0503C249.263 19.363 250 21.1435 250 23V28C250 28.7956 250.316 29.5587 250.879 30.1213C251.441 30.6839 252.204 31 253 31Z" stroke="#111111" stroke-width="2" stroke-linecap="round" stroke-linejoin="round"/>
<path d="M212.772 52H211.392V41.26H212.772L216.507 47.8H216.567L220.302 41.26H221.682V52H220.302V45.625L220.362 43.825H220.302L216.942 49.72H216.132L212.772 43.825H212.712L212.772 45.625V52ZM226.903 52.24C225.823 52.24 224.933 51.87 224.233 51.13C223.533 50.39 223.183 49.455 223.183 48.325C223.183 47.205 223.523 46.275 224.203 45.535C224.883 44.785 225.753 44.41 226.813 44.41C227.903 44.41 228.768 44.765 229.408 45.475C230.058 46.175 230.383 47.16 230.383 48.43L230.368 48.58H224.593C224.613 49.3 224.853 49.88 225.313 50.32C225.773 50.76 226.323 50.98 226.963 50.98C227.843 50.98 228.533 50.54 229.033 49.66L230.263 50.26C229.933 50.88 229.473 51.365 228.883 51.715C228.303 52.065 227.643 52.24 226.903 52.24ZM224.698 47.44H228.913C228.873 46.93 228.663 46.51 228.283 46.18C227.913 45.84 227.413 45.67 226.783 45.67C226.263 45.67 225.813 45.83 225.433 46.15C225.063 46.47 224.818 46.9 224.698 47.44ZM237.343 49.96C237.343 50.6 237.063 51.14 236.503 51.58C235.943 52.02 235.238 52.24 234.388 52.24C233.648 52.24 232.998 52.05 232.438 51.67C231.878 51.28 231.478 50.77 231.238 50.14L232.468 49.615C232.648 50.055 232.908 50.4 233.248 50.65C233.598 50.89 233.978 51.01 234.388 51.01C234.828 51.01 235.193 50.915 235.483 50.725C235.783 50.535 235.933 50.31 235.933 50.05C235.933 49.58 235.573 49.235 234.853 49.015L233.593 48.7C232.163 48.34 231.448 47.65 231.448 46.63C231.448 45.96 231.718 45.425 232.258 45.025C232.808 44.615 233.508 44.41 234.358 44.41C235.008 44.41 235.593 44.565 236.113 44.875C236.643 45.185 237.013 45.6 237.223 46.12L235.993 46.63C235.853 46.32 235.623 46.08 235.303 45.91C234.993 45.73 234.643 45.64 234.253 45.64C233.893 45.64 233.568 45.73 233.278 45.91C232.998 46.09 232.858 46.31 232.858 46.57C232.858 46.99 233.253 47.29 234.043 47.47L235.153 47.755C236.613 48.115 237.343 48.85 237.343 49.96ZM244.17 49.96C244.17 50.6 243.89 51.14 243.33 51.58C242.77 52.02 242.065 52.24 241.215 52.24C240.475 52.24 239.825 52.05 239.265 51.67C238.705 51.28 238.305 50.77 238.065 50.14L239.295 49.615C239.475 50.055 239.735 50.4 240.075 50.65C240.425 50.89 240.805 51.01 241.215 51.01C241.655 51.01 242.02 50.915 242.31 50.725C242.61 50.535 242.76 50.31 242.76 50.05C242.76 49.58 242.4 49.235 241.68 49.015L240.42 48.7C238.99 48.34 238.275 47.65 238.275 46.63C238.275 45.96 238.545 45.425 239.085 45.025C239.635 44.615 240.335 44.41 241.185 44.41C241.835 44.41 242.42 44.565 242.94 44.875C243.47 45.185 243.84 45.6 244.05 46.12L242.82 46.63C242.68 46.32 242.45 46.08 242.13 45.91C241.82 45.73 241.47 45.64 241.08 45.64C240.72 45.64 240.395 45.73 240.105 45.91C239.825 46.09 239.685 46.31 239.685 46.57C239.685 46.99 240.08 47.29 240.87 47.47L241.98 47.755C243.44 48.115 244.17 48.85 244.17 49.96ZM246.449 49.75C246.449 50.11 246.599 50.41 246.899 50.65C247.209 50.89 247.569 51.01 247.979 51.01C248.559 51.01 249.074 50.795 249.524 50.365C249.984 49.935 250.214 49.43 250.214 48.85C249.784 48.51 249.184 48.34 248.414 48.34C247.854 48.34 247.384 48.475 247.004 48.745C246.634 49.015 246.449 49.35 246.449 49.75ZM248.234 44.41C249.254 44.41 250.059 44.685 250.649 45.235C251.239 45.775 251.534 46.52 251.534 47.47V52H250.214V50.98H250.154C249.584 51.82 248.824 52.24 247.874 52.24C247.064 52.24 246.384 52 245.834 51.52C245.294 51.04 245.024 50.44 245.024 49.72C245.024 48.96 245.309 48.355 245.879 47.905C246.459 47.455 247.229 47.23 248.189 47.23C249.009 47.23 249.684 47.38 250.214 47.68V47.365C250.214 46.885 250.024 46.48 249.644 46.15C249.264 45.81 248.819 45.64 248.309 45.64C247.539 45.64 246.929 45.965 246.479 46.615L245.264 45.85C245.934 44.89 246.924 44.41 248.234 44.41ZM256.317 50.98C256.997 50.98 257.552 50.735 257.982 50.245C258.432 49.755 258.657 49.115 258.657 48.325C258.657 47.555 258.432 46.92 257.982 46.42C257.542 45.92 256.987 45.67 256.317 45.67C255.657 45.67 255.102 45.92 254.652 46.42C254.202 46.92 253.977 47.555 253.977 48.325C253.977 49.105 254.202 49.74 254.652 50.23C255.102 50.73 255.657 50.98 256.317 50.98ZM256.272 55.48C255.862 55.48 255.477 55.425 255.117 55.315C254.757 55.215 254.427 55.07 254.127 54.88C253.837 54.69 253.587 54.465 253.377 54.205C253.167 53.945 253.007 53.655 252.897 53.335L254.202 52.795C254.352 53.225 254.612 53.57 254.982 53.83C255.352 54.09 255.782 54.22 256.272 54.22C257.022 54.22 257.607 53.995 258.027 53.545C258.447 53.095 258.657 52.475 258.657 51.685V50.98H258.597C258.337 51.37 257.982 51.68 257.532 51.91C257.092 52.13 256.612 52.24 256.092 52.24C255.132 52.24 254.307 51.865 253.617 51.115C252.937 50.345 252.597 49.415 252.597 48.325C252.597 47.235 252.937 46.31 253.617 45.55C254.307 44.79 255.132 44.41 256.092 44.41C256.612 44.41 257.092 44.525 257.532 44.755C257.982 44.975 258.337 45.28 258.597 45.67H258.657V44.65H259.977V51.685C259.977 52.865 259.642 53.79 258.972 54.46C258.292 55.14 257.392 55.48 256.272 55.48ZM264.887 52.24C263.807 52.24 262.917 51.87 262.217 51.13C261.517 50.39 261.167 49.455 261.167 48.325C261.167 47.205 261.507 46.275 262.187 45.535C262.867 44.785 263.737 44.41 264.797 44.41C265.887 44.41 266.752 44.765 267.392 45.475C268.042 46.175 268.367 47.16 268.367 48.43L268.352 48.58H262.577C262.597 49.3 262.837 49.88 263.297 50.32C263.757 50.76 264.307 50.98 264.947 50.98C265.827 50.98 266.517 50.54 267.017 49.66L268.247 50.26C267.917 50.88 267.457 51.365 266.867 51.715C266.287 52.065 265.627 52.24 264.887 52.24ZM262.682 47.44H266.897C266.857 46.93 266.647 46.51 266.267 46.18C265.897 45.84 265.397 45.67 264.767 45.67C264.247 45.67 263.797 45.83 263.417 46.15C263.047 46.47 262.802 46.9 262.682 47.44ZM275.327 49.96C275.327 50.6 275.047 51.14 274.487 51.58C273.927 52.02 273.222 52.24 272.372 52.24C271.632 52.24 270.982 52.05 270.422 51.67C269.862 51.28 269.462 50.77 269.222 50.14L270.452 49.615C270.632 50.055 270.892 50.4 271.232 50.65C271.582 50.89 271.962 51.01 272.372 51.01C272.812 51.01 273.177 50.915 273.467 50.725C273.767 50.535 273.917 50.31 273.917 50.05C273.917 49.58 273.557 49.235 272.837 49.015L271.577 48.7C270.147 48.34 269.432 47.65 269.432 46.63C269.432 45.96 269.702 45.425 270.242 45.025C270.792 44.615 271.492 44.41 272.342 44.41C272.992 44.41 273.577 44.565 274.097 44.875C274.627 45.185 274.997 45.6 275.207 46.12L273.977 46.63C273.837 46.32 273.607 46.08 273.287 45.91C272.977 45.73 272.627 45.64 272.237 45.64C271.877 45.64 271.552 45.73 271.262 45.91C270.982 46.09 270.842 46.31 270.842 46.57C270.842 46.99 271.237 47.29 272.027 47.47L273.137 47.755C274.597 48.115 275.327 48.85 275.327 49.96Z" fill="#111111"/>
</g>
<g filter="url(#filter3_i_149_13716)">
<rect width="97.4239" height="68" transform="translate(292.424)" fill="white"/>
<path d="M348.424 35V33C348.424 31.9391 348.002 30.9217 347.252 30.1716C346.502 29.4214 345.485 29 344.424 29H336.424C335.363 29 334.346 29.4214 333.595 30.1716C332.845 30.9217 332.424 31.9391 332.424 33V35" stroke="#111111" stroke-width="2" stroke-linecap="round" stroke-linejoin="round"/>
<path d="M340.424 25C342.633 25 344.424 23.2091 344.424 21C344.424 18.7909 342.633 17 340.424 17C338.215 17 336.424 18.7909 336.424 21C336.424 23.2091 338.215 25 340.424 25Z" stroke="#111111" stroke-width="2" stroke-linecap="round" stroke-linejoin="round"/>
<path d="M310.635 52H309.255V41.26H310.635L314.37 47.8H314.43L318.165 41.26H319.545V52H318.165V45.625L318.225 43.825H318.165L314.805 49.72H313.995L310.635 43.825H310.575L310.635 45.625V52ZM327.89 44.65L323.285 55.24H321.86L323.57 51.535L320.54 44.65H322.04L324.23 49.93H324.26L326.39 44.65H327.89ZM333.707 47.65V52H332.327V41.26H335.987C336.917 41.26 337.707 41.57 338.357 42.19C339.017 42.81 339.347 43.565 339.347 44.455C339.347 45.365 339.017 46.125 338.357 46.735C337.717 47.345 336.927 47.65 335.987 47.65H333.707ZM333.707 42.58V46.33H336.017C336.567 46.33 337.022 46.145 337.382 45.775C337.752 45.405 337.937 44.965 337.937 44.455C337.937 43.955 337.752 43.52 337.382 43.15C337.022 42.77 336.567 42.58 336.017 42.58H333.707ZM341.933 52H340.553V44.65H341.873V45.85H341.933C342.073 45.46 342.358 45.13 342.788 44.86C343.228 44.58 343.658 44.44 344.078 44.44C344.478 44.44 344.818 44.5 345.098 44.62L344.678 45.955C344.508 45.885 344.238 45.85 343.868 45.85C343.348 45.85 342.893 46.06 342.503 46.48C342.123 46.9 341.933 47.39 341.933 47.95V52ZM345.128 48.325C345.128 47.195 345.483 46.26 346.193 45.52C346.913 44.78 347.818 44.41 348.908 44.41C349.998 44.41 350.898 44.78 351.608 45.52C352.328 46.26 352.688 47.195 352.688 48.325C352.688 49.465 352.328 50.4 351.608 51.13C350.898 51.87 349.998 52.24 348.908 52.24C347.818 52.24 346.913 51.87 346.193 51.13C345.483 50.39 345.128 49.455 345.128 48.325ZM346.508 48.325C346.508 49.115 346.738 49.755 347.198 50.245C347.658 50.735 348.228 50.98 348.908 50.98C349.588 50.98 350.158 50.735 350.618 50.245C351.078 49.755 351.308 49.115 351.308 48.325C351.308 47.545 351.078 46.91 350.618 46.42C350.148 45.92 349.578 45.67 348.908 45.67C348.238 45.67 347.668 45.92 347.198 46.42C346.738 46.91 346.508 47.545 346.508 48.325ZM360.967 42.115C360.967 42.385 360.872 42.615 360.682 42.805C360.492 42.995 360.262 43.09 359.992 43.09C359.722 43.09 359.492 42.995 359.302 42.805C359.112 42.615 359.017 42.385 359.017 42.115C359.017 41.845 359.112 41.615 359.302 41.425C359.492 41.235 359.722 41.14 359.992 41.14C360.262 41.14 360.492 41.235 360.682 41.425C360.872 41.615 360.967 41.845 360.967 42.115ZM356.002 45.91V52H354.622V45.91H353.242V44.65H354.622V43.585C354.622 43.225 354.682 42.895 354.802 42.595C354.932 42.295 355.107 42.04 355.327 41.83C355.547 41.61 355.807 41.44 356.107 41.32C356.417 41.2 356.752 41.14 357.112 41.14C357.612 41.14 358.022 41.225 358.342 41.395L357.967 42.61C357.727 42.49 357.457 42.43 357.157 42.43C356.817 42.43 356.537 42.55 356.317 42.79C356.107 43.02 356.002 43.33 356.002 43.72V44.65H360.682V52H359.302V45.91H356.002ZM363.862 41.26V52H362.482V41.26H363.862ZM368.77 52.24C367.69 52.24 366.8 51.87 366.1 51.13C365.4 50.39 365.05 49.455 365.05 48.325C365.05 47.205 365.39 46.275 366.07 45.535C366.75 44.785 367.62 44.41 368.68 44.41C369.77 44.41 370.635 44.765 371.275 45.475C371.925 46.175 372.25 47.16 372.25 48.43L372.235 48.58H366.46C366.48 49.3 366.72 49.88 367.18 50.32C367.64 50.76 368.19 50.98 368.83 50.98C369.71 50.98 370.4 50.54 370.9 49.66L372.13 50.26C371.8 50.88 371.34 51.365 370.75 51.715C370.17 52.065 369.51 52.24 368.77 52.24ZM366.565 47.44H370.78C370.74 46.93 370.53 46.51 370.15 46.18C369.78 45.84 369.28 45.67 368.65 45.67C368.13 45.67 367.68 45.83 367.3 46.15C366.93 46.47 366.685 46.9 366.565 47.44Z" fill="#111111"/>
</g>
<line x1="97" y1="1" x2="195" y2="1" stroke="#2463BF" stroke-width="2"/>
<path d="M139.569 24.1538C139.382 24.1538 139.231 24.3054 139.231 24.4923V27.2C139.231 27.3869 139.382 27.5385 139.569 27.5385H142.277C142.464 27.5385 142.615 27.3869 142.615 27.2V24.4923C142.615 24.3054 142.464 24.1538 142.277 24.1538H139.569Z" fill="#2463BF"/>
<path d="M139.231 29.5692C139.231 29.3823 139.382 29.2308 139.569 29.2308H142.277C142.464 29.2308 142.615 29.3823 142.615 29.5692V32.2769C142.615 32.4639 142.464 32.6154 142.277 32.6154H139.569C139.382 32.6154 139.231 32.4639 139.231 32.2769V29.5692Z" fill="#2463BF"/>
<path d="M144.646 24.1538C144.459 24.1538 144.308 24.3054 144.308 24.4923V27.2C144.308 27.3869 144.459 27.5385 144.646 27.5385H147.354C147.541 27.5385 147.692 27.3869 147.692 27.2V24.4923C147.692 24.3054 147.541 24.1538 147.354 24.1538H144.646Z" fill="#2463BF"/>
<path d="M144.308 29.5692C144.308 29.3823 144.459 29.2308 144.646 29.2308H147.354C147.541 29.2308 147.692 29.3823 147.692 29.5692V32.2769C147.692 32.4639 147.541 32.6154 147.354 32.6154H144.646C144.459 32.6154 144.308 32.4639 144.308 32.2769V29.5692Z" fill="#2463BF"/>
<path d="M149.723 24.1538C149.536 24.1538 149.385 24.3054 149.385 24.4923V27.2C149.385 27.3869 149.536 27.5385 149.723 27.5385H152.431C152.618 27.5385 152.769 27.3869 152.769 27.2V24.4923C152.769 24.3054 152.618 24.1538 152.431 24.1538H149.723Z" fill="#2463BF"/>
<path d="M149.385 29.5692C149.385 29.3823 149.536 29.2308 149.723 29.2308H152.431C152.618 29.2308 152.769 29.3823 152.769 29.5692V32.2769C152.769 32.4639 152.618 32.6154 152.431 32.6154H149.723C149.536 32.6154 149.385 32.4639 149.385 32.2769V29.5692Z" fill="#2463BF"/>
<path d="M140.077 20.7692C139.61 20.7692 139.231 21.1481 139.231 21.6154C139.231 22.0827 139.61 22.4615 140.077 22.4615H151.923C152.39 22.4615 152.769 22.0827 152.769 21.6154C152.769 21.1481 152.39 20.7692 151.923 20.7692H140.077Z" fill="#2463BF"/>
<path fill-rule="evenodd" clip-rule="evenodd" d="M150.231 16.5385H141.769V14.8462C141.769 14.3788 141.39 14 140.923 14C140.456 14 140.077 14.3788 140.077 14.8462V16.5385H137.538C136.137 16.5385 135 17.675 135 19.0769V33.4615C135 34.8635 136.137 36 137.538 36H154.462C155.863 36 157 34.8635 157 33.4615V19.0769C157 17.675 155.863 16.5385 154.462 16.5385H151.923V14.8462C151.923 14.3788 151.544 14 151.077 14C150.61 14 150.231 14.3788 150.231 14.8462V16.5385ZM140.923 19.0769C140.456 19.0769 140.077 18.6981 140.077 18.2308H137.538C137.071 18.2308 136.692 18.6096 136.692 19.0769V33.4615C136.692 33.9289 137.071 34.3077 137.538 34.3077H154.462C154.929 34.3077 155.308 33.9289 155.308 33.4615V19.0769C155.308 18.6096 154.929 18.2308 154.462 18.2308H151.923C151.923 18.6981 151.544 19.0769 151.077 19.0769C150.61 19.0769 150.231 18.6981 150.231 18.2308H141.769C141.769 18.6981 141.39 19.0769 140.923 19.0769Z" fill="#2463BF"/>
<defs>
<filter id="filter0_i_149_13716" x="97.5" y="0" width="97.5" height="68" filterUnits="userSpaceOnUse" color-interpolation-filters="sRGB">
<feFlood flood-opacity="0" result="BackgroundImageFix"/>
<feBlend mode="normal" in="SourceGraphic" in2="BackgroundImageFix" result="shape"/>
<feColorMatrix in="SourceAlpha" type="matrix" values="0 0 0 0 0 0 0 0 0 0 0 0 0 0 0 0 0 0 127 0" result="hardAlpha"/>
<feOffset dy="2"/>
<feComposite in2="hardAlpha" operator="arithmetic" k2="-1" k3="1"/>
<feColorMatrix type="matrix" values="0 0 0 0 0 0 0 0 0 0 0 0 0 0 0 0 0 0 1 0"/>
<feBlend mode="normal" in2="shape" result="effect1_innerShadow_149_13716"/>
</filter>
<filter id="filter1_i_149_13716" x="0" y="0" width="97.5" height="68" filterUnits="userSpaceOnUse" color-interpolation-filters="sRGB">
<feFlood flood-opacity="0" result="BackgroundImageFix"/>
<feBlend mode="normal" in="SourceGraphic" in2="BackgroundImageFix" result="shape"/>
<feColorMatrix in="SourceAlpha" type="matrix" values="0 0 0 0 0 0 0 0 0 0 0 0 0 0 0 0 0 0 127 0" result="hardAlpha"/>
<feOffset dy="2"/>
<feComposite in2="hardAlpha" operator="arithmetic" k2="-1" k3="1"/>
<feColorMatrix type="matrix" values="0 0 0 0 0.704167 0 0 0 0 0.704167 0 0 0 0 0.704167 0 0 0 1 0"/>
<feBlend mode="normal" in2="shape" result="effect1_innerShadow_149_13716"/>
</filter>
<filter id="filter2_i_149_13716" x="195" y="0" width="97.4238" height="68" filterUnits="userSpaceOnUse" color-interpolation-filters="sRGB">
<feFlood flood-opacity="0" result="BackgroundImageFix"/>
<feBlend mode="normal" in="SourceGraphic" in2="BackgroundImageFix" result="shape"/>
<feColorMatrix in="SourceAlpha" type="matrix" values="0 0 0 0 0 0 0 0 0 0 0 0 0 0 0 0 0 0 127 0" result="hardAlpha"/>
<feOffset dy="2"/>
<feComposite in2="hardAlpha" operator="arithmetic" k2="-1" k3="1"/>
<feColorMatrix type="matrix" values="0 0 0 0 0.666667 0 0 0 0 0.666667 0 0 0 0 0.666667 0 0 0 1 0"/>
<feBlend mode="normal" in2="shape" result="effect1_innerShadow_149_13716"/>
</filter>
<filter id="filter3_i_149_13716" x="292.424" y="0" width="97.4238" height="68" filterUnits="userSpaceOnUse" color-interpolation-filters="sRGB">
<feFlood flood-opacity="0" result="BackgroundImageFix"/>
<feBlend mode="normal" in="SourceGraphic" in2="BackgroundImageFix" result="shape"/>
<feColorMatrix in="SourceAlpha" type="matrix" values="0 0 0 0 0 0 0 0 0 0 0 0 0 0 0 0 0 0 127 0" result="hardAlpha"/>
<feOffset dy="2"/>
<feComposite in2="hardAlpha" operator="arithmetic" k2="-1" k3="1"/>
<feColorMatrix type="matrix" values="0 0 0 0 0.666667 0 0 0 0 0.666667 0 0 0 0 0.666667 0 0 0 1 0"/>
<feBlend mode="normal" in2="shape" result="effect1_innerShadow_149_13716"/>
</filter>
</defs>
</svg>
