<svg width="390" height="47" viewBox="0 0 390 47" fill="none" xmlns="http://www.w3.org/2000/svg">
<rect width="390" height="47" fill="white"/>
<path fill-rule="evenodd" clip-rule="evenodd" d="M303.804 19.4999H302.637C301.993 19.4999 301.471 20.0036 301.471 20.6249V30.3749C301.471 30.9962 301.993 31.4999 302.637 31.4999H303.804C304.448 31.4999 304.971 30.9962 304.971 30.3749V20.6249C304.971 20.0036 304.448 19.4999 303.804 19.4999ZM297.147 22.125H298.314C298.958 22.125 299.48 22.6287 299.48 23.25V30.375C299.48 30.9963 298.958 31.5 298.314 31.5H297.147C296.503 31.5 295.98 30.9963 295.98 30.375V23.25C295.98 22.6287 296.503 22.125 297.147 22.125ZM292.824 24.7498H291.657C291.013 24.7498 290.49 25.2535 290.49 25.8748V30.3748C290.49 30.9961 291.013 31.4998 291.657 31.4998H292.824C293.468 31.4998 293.99 30.9961 293.99 30.3748V25.8748C293.99 25.2535 293.468 24.7498 292.824 24.7498ZM287.333 26.9998H286.167C285.522 26.9998 285 27.5034 285 28.1248V30.3748C285 30.9961 285.522 31.4998 286.167 31.4998H287.333C287.978 31.4998 288.5 30.9961 288.5 30.3748V28.1248C288.5 27.5034 287.978 26.9998 287.333 26.9998Z" fill="black"/>
<path fill-rule="evenodd" clip-rule="evenodd" d="M320.471 21.846C322.938 21.8461 325.31 22.8167 327.098 24.5571C327.232 24.6915 327.447 24.6898 327.58 24.5533L328.867 23.2234C328.934 23.1542 328.971 23.0604 328.971 22.9629C328.97 22.8653 328.932 22.772 328.864 22.7036C324.172 18.0988 316.77 18.0988 312.078 22.7036C312.01 22.772 311.971 22.8652 311.971 22.9628C311.97 23.0603 312.007 23.1541 312.075 23.2234L313.362 24.5533C313.494 24.69 313.709 24.6917 313.844 24.5571C315.632 22.8166 318.004 21.846 320.471 21.846ZM320.471 26.1727C321.826 26.1726 323.133 26.6884 324.138 27.62C324.274 27.7522 324.488 27.7493 324.62 27.6135L325.905 26.2836C325.973 26.2139 326.011 26.1192 326.01 26.0209C326.009 25.9226 325.969 25.8287 325.9 25.7604C322.841 22.8463 318.104 22.8463 315.045 25.7604C314.976 25.8287 314.936 25.9226 314.935 26.021C314.934 26.1193 314.972 26.214 315.04 26.2836L316.325 27.6135C316.457 27.7493 316.671 27.7522 316.807 27.62C317.811 26.689 319.117 26.1732 320.471 26.1727ZM323.046 29.084C323.048 29.1826 323.01 29.2777 322.941 29.3468L320.718 31.6445C320.653 31.712 320.564 31.75 320.471 31.75C320.378 31.75 320.29 31.712 320.224 31.6445L318.001 29.3468C317.932 29.2776 317.894 29.1825 317.896 29.0839C317.898 28.9853 317.94 28.8919 318.012 28.8258C319.431 27.596 321.511 27.596 322.931 28.8258C323.002 28.892 323.044 28.9854 323.046 29.084Z" fill="black"/>
<rect opacity="0.4" x="336.471" y="19.5" width="24" height="12" rx="3.5" stroke="black"/>
<path opacity="0.5" d="M361.971 23.5V27.5C362.777 27.1612 363.301 26.3731 363.301 25.5C363.301 24.6269 362.777 23.8388 361.971 23.5Z" fill="black"/>
<rect x="337.971" y="21" width="17" height="9" rx="2" fill="black"/>
<path d="M52.0166 19.7231C49.4185 19.7231 47.5674 21.4995 47.5674 23.9316V23.9482C47.5674 26.2227 49.1777 27.8994 51.4771 27.8994C53.1206 27.8994 54.1665 27.061 54.6064 26.1147H54.7725C54.731 28.5386 53.9424 30.5391 51.9668 30.5391C50.9126 30.5391 50.1738 29.9912 49.8584 29.1528L49.8335 29.0698H47.7251L47.7417 29.1611C48.1235 30.9956 49.7671 32.2988 51.9668 32.2988C54.98 32.2988 56.7979 29.9082 56.7979 25.874V25.8574C56.7979 21.541 54.5732 19.7231 52.0166 19.7231ZM52.0083 26.2559C50.647 26.2559 49.6592 25.2598 49.6592 23.8735V23.8569C49.6592 22.5205 50.7134 21.4663 52.0332 21.4663C53.3613 21.4663 54.3989 22.5371 54.3989 23.9067V23.9233C54.3989 25.2764 53.3613 26.2559 52.0083 26.2559ZM60.0664 24.2388C60.8301 24.2388 61.3862 23.6577 61.3862 22.9272C61.3862 22.1885 60.8301 21.6157 60.0664 21.6157C59.311 21.6157 58.7466 22.1885 58.7466 22.9272C58.7466 23.6577 59.311 24.2388 60.0664 24.2388ZM60.0664 30.3979C60.8301 30.3979 61.3862 29.8252 61.3862 29.0864C61.3862 28.3477 60.8301 27.7749 60.0664 27.7749C59.311 27.7749 58.7466 28.3477 58.7466 29.0864C58.7466 29.8252 59.311 30.3979 60.0664 30.3979ZM69.1455 32H71.1958V29.7007H72.8062V27.9326H71.1958V20.022H68.166C66.5391 22.4956 64.8374 25.2515 63.2852 27.9492V29.7007H69.1455V32ZM65.2773 27.9824V27.8579C66.4395 25.8242 67.8257 23.6079 69.0542 21.7319H69.1787V27.9824H65.2773ZM77.27 32H79.4116V20.022H77.2783L74.1489 22.2217V24.2388L77.1289 22.1304H77.27V32Z" fill="black"/>
</svg>
